<svg width="32" height="32" viewBox="0 0 32 32" fill="none" xmlns="http://www.w3.org/2000/svg">
  <defs>
    <linearGradient id="robotGradient" x1="0%" y1="0%" x2="100%" y2="100%">
      <stop offset="0%" style="stop-color:#3b82f6;stop-opacity:1" />
      <stop offset="50%" style="stop-color:#8b5cf6;stop-opacity:1" />
      <stop offset="100%" style="stop-color:#06b6d4;stop-opacity:1" />
    </linearGradient>
    <linearGradient id="eyeGradient" x1="0%" y1="0%" x2="100%" y2="100%">
      <stop offset="0%" style="stop-color:#10b981;stop-opacity:1" />
      <stop offset="100%" style="stop-color:#06b6d4;stop-opacity:1" />
    </linearGradient>
  </defs>
  
  <!-- Robot Head -->
  <rect x="6" y="8" width="20" height="16" rx="4" fill="url(#robotGradient)" stroke="#1e293b" stroke-width="0.5"/>
  
  <!-- Antenna -->
  <rect x="15.5" y="4" width="1" height="4" fill="#64748b"/>
  <circle cx="16" cy="4" r="1.5" fill="#f59e0b"/>
  
  <!-- Eyes -->
  <circle cx="12" cy="14" r="2.5" fill="url(#eyeGradient)"/>
  <circle cx="20" cy="14" r="2.5" fill="url(#eyeGradient)"/>
  <circle cx="12" cy="14" r="1" fill="#ffffff"/>
  <circle cx="20" cy="14" r="1" fill="#ffffff"/>
  
  <!-- Mouth -->
  <rect x="14" y="19" width="4" height="1.5" rx="0.75" fill="#1e293b"/>
  
  <!-- Body -->
  <rect x="8" y="24" width="16" height="6" rx="2" fill="url(#robotGradient)" stroke="#1e293b" stroke-width="0.5"/>
  
  <!-- Chest Panel -->
  <rect x="12" y="26" width="8" height="2" rx="1" fill="#1e293b" opacity="0.3"/>
  
  <!-- Arms -->
  <rect x="3" y="26" width="4" height="1.5" rx="0.75" fill="#64748b"/>
  <rect x="25" y="26" width="4" height="1.5" rx="0.75" fill="#64748b"/>
  
  <!-- Glow Effect -->
  <circle cx="16" cy="16" r="14" fill="none" stroke="url(#robotGradient)" stroke-width="0.5" opacity="0.3"/>
</svg>
